<?xml version="1.0" encoding="UTF-8"?><svg id="Logo" xmlns="http://www.w3.org/2000/svg" viewBox="0 0 600 600"><defs><style>.cls-1{fill:#0aa0bd;}</style></defs><path class="cls-1" d="m279.71,390.06c-7.74,0-16.3-1.62-25.66-4.84-9.36-3.23-19-7.16-28.89-11.78-9.9-4.63-19.69-9.09-29.37-13.4-5.38,6.02-10.98,10.71-16.78,14.05-5.81,3.34-12.16,5-19.05,5s-12.75-1.62-17.59-4.84c-4.84-3.23-8.5-7.05-10.98-11.46-2.47-4.41-3.71-8.33-3.71-11.78,0-3.88,1.77-7.2,5.33-10.01,3.55-2.79,9.63-4.2,18.23-4.2,5.59,0,11.78.65,18.56,1.94,6.78,1.29,13.83,2.91,21.14,4.85,5.16-9.04,9.95-19.59,14.36-31.63,4.41-12.05,8.77-24.86,13.08-38.41,4.3-13.56,8.6-27.12,12.91-40.67-9.9-3.23-17.7-7.96-23.4-14.21-5.71-6.23-8.55-13.02-8.55-20.34,0-3.87.8-7.74,2.42-11.62,1.62-3.87,3.92-7.14,6.94-9.84,3.01-2.69,6.56-4.03,10.65-4.03-1.51,2.15-2.59,5.27-3.23,9.36-.65,4.09-.97,7.64-.97,10.65,0,8.17,1.73,15,5.16,20.5,3.45,5.48,7.85,9.73,13.24,12.74,4.3-12.9,8.77-25.11,13.39-36.63,4.63-11.51,9.73-21.79,15.33-30.83,5.6-9.04,11.73-16.13,18.4-21.3,6.67-5.16,14.09-7.74,22.27-7.74,4.3,0,8.88.97,13.72,2.91,4.84,1.93,8.98,5.27,12.43,10.01,3.44,4.73,5.16,11.4,5.16,20.01,0,7.32-1.51,15.22-4.52,23.72-3.01,8.51-7.64,16.57-13.87,24.21-6.24,7.64-14.21,13.88-23.89,18.72-9.68,4.85-21.09,7.37-34.21,7.58h-6.13c-4.3,13.13-8.88,26.48-13.72,40.02-4.84,13.56-9.95,26.42-15.33,38.58-5.38,12.15-11.19,22.97-17.43,32.43,9.9,3.02,19.9,6.08,30.02,9.2,10.11,3.13,19.9,5.7,29.37,7.76,9.46,2.04,18.18,3.06,26.14,3.06,4.52,0,8.61-.43,12.27-1.28,3.66-.87,7.21-2.16,10.65-3.88-3.44,9.89-8.02,16.94-13.72,21.14-5.7,4.19-12.42,6.29-20.17,6.29Zm-121.04-20.34c4.73,0,9.2-1.29,13.39-3.87,4.2-2.59,8.02-6.24,11.46-10.98-6.68-2.79-13.19-5.11-19.53-6.95-6.35-1.82-12.11-2.74-17.27-2.74-4.09,0-6.88.53-8.39,1.6-1.51,1.08-2.26,2.59-2.26,4.52,0,3.66,2.1,7.64,6.3,11.95,4.2,4.3,9.63,6.45,16.3,6.45Zm94.9-139.12c9.68,0,18.45-2.75,26.3-8.23,7.86-5.49,14.53-12.37,20.01-20.66,5.49-8.29,9.68-16.73,12.59-25.34,2.91-8.6,4.36-16.13,4.36-22.59s-1.19-10.49-3.55-12.75c-2.37-2.26-5.05-3.39-8.07-3.39-6.67,0-12.91,4.3-18.72,12.91-5.82,8.61-11.36,19.95-16.63,34.05-5.27,14.1-10.7,29.43-16.3,46Z"/><path class="cls-1" d="m411.9,491.02c-4.73,0-10.23-2.79-16.46-8.39-6.24-5.6-12.86-13.02-19.85-22.27-6.99-9.24-13.88-19.31-20.66-30.18-6.77-10.86-13.02-21.67-18.72-32.44-5.71-10.76-10.49-20.34-14.37-28.73l-31.31,101.35c-1.5,4.95-3.87,8.45-7.1,10.49s-6.73,3.28-10.49,3.72c-3.76.43-7.48.65-11.14.65,2.79-6.02,5.64-12.91,8.55-20.66,2.91-7.74,6.35-17.1,10.33-28.08s8.67-24.32,14.05-40.02c5.38-15.71,11.78-34.48,19.2-56.33,7.42-21.84,16.19-47.5,26.3-76.98.65-1.72,1.51-4.14,2.59-7.27,1.07-3.12,1.62-5.97,1.62-8.55,0-2.37-.54-4.25-1.62-5.64-1.07-1.4-3.12-2.1-6.13-2.1-5.17,0-10.17,2.1-15.01,6.29-4.84,4.2-9.15,9.52-12.91,15.98-3.76,6.45-6.73,13.12-8.88,20.01-2.15,6.89-3.22,13.02-3.22,18.4,0,4.09.53,7.74,1.6,10.98-7.1,0-12.1-1.78-15-5.33-2.91-3.54-4.36-7.91-4.36-13.06,0-7.32,2.16-14.63,6.46-21.95,4.29-7.32,9.84-14.05,16.62-20.17,6.77-6.13,13.88-11.02,21.3-14.69,7.42-3.65,14.15-5.48,20.17-5.48s9.73,1.62,11.78,4.84c2.04,3.23,3.07,6.79,3.07,10.65,0,2.38-.28,4.74-.81,7.11-.54,2.37-1.13,4.63-1.78,6.77l-27.12,87.79c3.01-4.29,6.95-8.27,11.78-11.93,4.85-3.66,10.17-7.86,15.98-12.59,9.68-7.74,20.06-16.79,31.15-27.12,11.08-10.33,21.67-21.19,31.8-32.59,10.11-11.4,18.5-22.38,25.17-32.93,1.07,1.29,1.82,3.55,2.26,6.77.43,3.23.65,5.7.65,7.43,0,6.67-2.75,13.99-8.23,21.94-5.49,7.96-12.65,16.2-21.47,24.7-8.83,8.51-18.51,16.9-29.05,25.17-10.55,8.29-20.94,16.09-31.15,23.41-10.23,7.32-19.42,13.66-27.61,19.04,6.46,10.98,12.75,21.42,18.88,31.31,6.14,9.9,12.81,19.59,20.02,29.05,7.2,9.48,15.65,19.16,25.33,29.05,9.68,9.9,21.41,20.55,35.19,31.96-1.51,2.79-3.88,5.27-7.11,7.43-3.22,2.15-6.67,3.22-10.33,3.22Z"/><path class="cls-1" d="m515.21,269.56c-4.96,11-9,24.36-12.13,40.08-3,13.65-3.27,24.93-.78,33.83,2.47,8.91,8.66,17.43,18.59,25.55,5.16,4.59,7.85,8.45,8.1,11.56.24,3.13-1.11,5.08-4.05,5.83-4.2-1.11-8.64-1.49-13.34-1.12-4.69.37-8.96,1.68-12.83,3.95-3.87,2.26-7.36,5.34-10.49,9.24-3.13,3.9-5.23,8.82-6.32,14.76-1.86,9.44-2.97,18.18-3.3,26.18-.33,8.02-.68,16.04-1.03,24.04-.32,8.03-.83,16.39-1.51,25.1-.66,8.73-2.18,18.33-4.56,28.82-4.74,20.12-14.02,33.39-27.8,39.79-13.77,6.41-33.32,3.64-58.65-8.31-2.84-2.2-3.97-4.35-3.43-6.45.58-2.1,1.9-3.09,3.98-2.97,17.93,8.47,32.2,9.71,42.76,3.73,10.57-5.99,18.33-18.79,23.29-38.39,2.22-9.28,3.66-18.05,4.35-26.34.67-8.29,1.27-16.6,1.77-24.97.51-8.37,1.05-16.8,1.64-25.36.59-8.54,1.99-17.89,4.19-28.03,2.54-10.84,7.44-19.39,14.69-25.67,7.25-6.24,15.86-8.53,25.81-6.84-8.58-10.06-14.4-21.21-17.47-33.41-3.07-12.19-3.51-24.24-1.34-36.12,1.73-8.22,3.6-15.4,5.63-21.54,2.04-6.13,4.11-12.14,6.26-18.03,2.11-5.86,4.2-11.89,6.23-18.03,2.04-6.13,3.91-13.3,5.63-21.54,4.74-20.98,4.02-38.11-2.2-51.36-6.23-13.27-19.35-24.63-39.42-34.09-3.51-1.65-4.95-3.62-4.32-5.9.65-2.27,2.55-3.1,5.69-2.48,27.1,12.79,45.14,27.64,54.15,44.57,9,16.94,10.4,38.36,4.21,64.26-3.02,12.76-7.01,24.65-11.98,35.64Z"/><path class="cls-1" d="m90.19,322.73c5.81-10.57,10.91-23.58,15.26-39,4.07-13.38,5.22-24.58,3.47-33.65-1.76-9.07-7.27-18.06-16.52-26.94-4.78-5-7.17-9.05-7.16-12.18,0-3.14,1.5-4.97,4.48-5.49,4.11,1.44,8.5,2.17,13.21,2.18,4.7,0,9.07-.98,13.1-2.93,4.03-1.95,7.76-4.74,11.19-8.38,3.42-3.65,5.91-8.38,7.46-14.22,2.61-9.27,4.4-17.89,5.38-25.83.96-7.97,1.93-15.94,2.91-23.89.95-7.97,2.12-16.26,3.49-24.91,1.34-8.63,3.62-18.08,6.82-28.37,6.32-19.68,16.62-32.16,30.87-37.46,14.22-5.31,33.5-.99,57.82,12.93,2.65,2.42,3.61,4.65,2.89,6.69-.74,2.05-2.14,2.93-4.2,2.64-17.21-9.86-31.33-12.22-42.34-7.1-11,5.14-19.75,17.28-26.23,36.42-2.94,9.08-5.08,17.72-6.43,25.92-1.33,8.19-2.57,16.43-3.74,24.74-1.16,8.3-2.37,16.69-3.64,25.16-1.26,8.46-3.39,17.66-6.4,27.61-3.38,10.61-8.94,18.74-16.66,24.42-7.73,5.66-16.49,7.25-26.28,4.79,7.77,10.71,12.68,22.27,14.77,34.68,2.1,12.4,1.58,24.44-1.52,36.11-2.37,8.06-4.81,15.06-7.32,21.03-2.52,5.94-5.06,11.78-7.66,17.47-2.57,5.69-5.14,11.51-7.64,17.47-2.52,5.96-4.97,12.96-7.33,21.02-6.38,20.57-7.01,37.68-1.85,51.39,5.16,13.72,17.35,26.07,36.61,37.09,3.36,1.93,4.65,4,3.83,6.23-.83,2.22-2.78,2.87-5.86,2.02-26-14.89-42.81-31.13-50.46-48.71-7.63-17.6-7.33-39.07.89-64.39,4.01-12.5,8.93-24.03,14.76-34.59Z"/></svg>