<?xml version="1.0" standalone="no"?>
<!DOCTYPE svg PUBLIC "-//W3C//DTD SVG 20010904//EN"
 "http://www.w3.org/TR/2001/REC-SVG-20010904/DTD/svg10.dtd">
<svg version="1.0" xmlns="http://www.w3.org/2000/svg"
 width="48.000000pt" height="48.000000pt" viewBox="0 0 48.000000 48.000000"
 preserveAspectRatio="xMidYMid meet">

<g transform="translate(0.000000,48.000000) scale(0.100000,-0.100000)"
fill="#000000" stroke="none">
<path d="M160 467 c-49 -16 -133 -102 -148 -153 -28 -94 -8 -169 63 -239 102
-103 243 -101 338 5 90 100 90 220 0 320 -65 72 -158 97 -253 67z m220 -92 c9
-11 10 -19 2 -27 -13 -13 -35 0 -28 18 8 21 -31 18 -43 -4 -5 -9 -12 -34 -16
-55 -6 -31 -4 -37 10 -37 9 0 19 9 22 20 6 23 33 27 33 5 0 -17 -30 -35 -58
-35 -15 0 -21 -9 -26 -41 -14 -90 -67 -154 -123 -147 -33 4 -40 40 -9 46 15 3
18 0 13 -17 -7 -29 18 -28 38 2 8 13 22 59 31 102 19 91 44 147 76 169 29 20
62 20 78 1z m-169 -61 c17 -8 28 -18 25 -22 -4 -3 -12 0 -18 6 -16 16 -58 15
-58 -2 0 -7 9 -25 21 -40 26 -33 22 -56 -14 -76 -24 -13 -30 -13 -54 0 -31 18
-43 50 -19 50 9 0 16 -9 16 -20 0 -24 27 -37 43 -21 8 8 5 19 -11 41 -28 37
-28 65 0 84 28 20 32 20 69 0z"/>
</g>
</svg>
