<?xml version="1.0" standalone="no"?>
<!DOCTYPE svg PUBLIC "-//W3C//DTD SVG 20010904//EN"
 "http://www.w3.org/TR/2001/REC-SVG-20010904/DTD/svg10.dtd">
<svg version="1.0" xmlns="http://www.w3.org/2000/svg"
 width="554.000000pt" height="552.000000pt" viewBox="0 0 554.000000 552.000000"
 preserveAspectRatio="xMidYMid meet">

<g transform="translate(0.000000,552.000000) scale(0.100000,-0.100000)"
fill="#FF0099" stroke="none">
<path d="M1958 5459 c-448 -36 -840 -182 -1139 -425 -314 -256 -575 -671 -684
-1090 -57 -218 -67 -315 -72 -666 l-5 -328 386 0 386 0 0 199 c0 602 99 907
384 1186 151 147 309 239 518 299 185 53 234 56 1036 56 695 0 747 -1 857 -20
291 -50 527 -168 715 -359 178 -179 283 -377 342 -643 18 -80 21 -138 25 -405
l5 -313 389 0 389 0 0 239 c0 364 -20 561 -81 799 -51 200 -145 412 -251 571
-275 411 -766 737 -1278 851 -237 53 -244 53 -1055 56 -418 1 -808 -2 -867 -7z"/>
<path d="M1872 4255 c-316 -108 -536 -337 -624 -650 -23 -80 -23 -82 -23 -840
l0 -760 23 -85 c13 -47 43 -126 66 -176 129 -273 309 -427 583 -501 90 -25
114 -27 288 -27 173 0 199 3 286 26 91 25 213 78 272 120 27 19 27 19 55 -1
47 -33 183 -97 242 -114 146 -41 408 -48 562 -13 332 74 591 336 690 696 l23
85 0 745 c0 742 0 745 -23 824 -27 95 -78 217 -124 293 -44 74 -157 194 -234
249 -105 75 -296 154 -373 154 l-21 0 -2 -1099 -3 -1100 -21 -28 c-12 -15 -36
-37 -55 -48 -46 -27 -158 -28 -218 -1 -77 35 -76 24 -79 514 l-3 432 -384 0
-384 0 -3 -417 c-3 -395 -4 -420 -23 -458 -25 -50 -72 -81 -135 -90 -102 -14
-179 18 -215 90 -20 39 -20 63 -23 1123 l-2 1082 -23 0 c-12 0 -55 -12 -95
-25z"/>
<path d="M60 2296 c0 -294 9 -412 46 -596 62 -312 195 -608 390 -871 98 -132
291 -324 414 -412 186 -132 463 -252 707 -306 228 -51 273 -54 1043 -58 759
-5 914 0 1119 37 448 81 871 305 1177 622 278 288 436 624 506 1073 15 101 21
201 25 453 l6 322 -392 0 -391 0 0 -266 c0 -392 -27 -540 -140 -769 -174 -355
-460 -572 -878 -667 -95 -21 -116 -22 -877 -25 -849 -4 -888 -2 -1081 53 -120
34 -314 130 -411 203 -199 150 -343 358 -419 608 -51 167 -64 275 -71 581 l-6
282 -383 0 -384 0 0 -264z"/>
</g>
</svg>
