<svg id="Logo" xmlns="http://www.w3.org/2000/svg" viewBox="0 0 56 30"><polygon id="Chevron_D" data-name="Chevron D" points="53.68 15 44 30 46.35 30 56 15 46.35 0 44 0 53.68 15"/><g id="LK"><path d="M44.58,12.93a1.8,1.8,0,0,0-1.32-.44,8.43,8.43,0,0,0-3.91,1.22,18.26,18.26,0,0,0-4.73,3.81,12.27,12.27,0,0,1-3.2,2.83,2.17,2.17,0,0,0-1.63-.48,2,2,0,0,0-.84.19c-.2.11-.3.24-.3.38s.12.28.35.41A1.89,1.89,0,0,0,30,21a5.07,5.07,0,0,0,1.3-.24.56.56,0,0,1,0,.23,1.56,1.56,0,0,1-.05.33,2.61,2.61,0,0,1-.77,1.36,18.77,18.77,0,0,0-2.95,3.55A3.24,3.24,0,0,0,27,28c0,.81.53,1.22,1.59,1.22a4.42,4.42,0,0,0,2.51-1,10,10,0,0,0,1.21-1.06,9,9,0,0,0,1-1.25,7.29,7.29,0,0,0,.71-1.3,3.27,3.27,0,0,0,.26-1.15c0-.33-.05-.5-.14-.5s-.1.12-.16.36a8.41,8.41,0,0,1-1.41,3,8.8,8.8,0,0,1-1,1.1,7.56,7.56,0,0,1-1,.83,4.74,4.74,0,0,1-1,.52,2.93,2.93,0,0,1-1,.17,1.29,1.29,0,0,1-.74-.16.51.51,0,0,1-.24-.46c0-.33.36-.83,1.09-1.48a11.71,11.71,0,0,0,2.57-3,4.42,4.42,0,0,0,.45-1.17,4.71,4.71,0,0,0,.12-1,2,2,0,0,0-.21-.91,19.22,19.22,0,0,0,6.26-4.54,25.73,25.73,0,0,1,3.22-2.68,5,5,0,0,1,1.11-.53,3.71,3.71,0,0,1,1.08-.15,1.43,1.43,0,0,1,1,.48.91.91,0,0,1,.1.83.71.71,0,0,0-.5-.17.79.79,0,0,0-.54.19.72.72,0,0,0-.28.43.68.68,0,0,0,.1.46.48.48,0,0,0,.41.22,1.06,1.06,0,0,0,.45-.09A1.32,1.32,0,0,0,44.89,14,1.16,1.16,0,0,0,44.58,12.93ZM30,20.69a1.18,1.18,0,0,1-.57-.07c-.13-.07-.2-.13-.2-.19s.07-.12.19-.19a1.24,1.24,0,0,1,.46-.11,1.51,1.51,0,0,1,1.21.36A3.21,3.21,0,0,1,30,20.69Z"/><path d="M38.46,1.83A1.87,1.87,0,0,0,36.65,1a8,8,0,0,0-4.93,1.84,27.1,27.1,0,0,0-5.34,6.23l-1.6,2.31a6.18,6.18,0,0,1-3.45-.85,2.94,2.94,0,0,1-1-1.09A3.93,3.93,0,0,1,20,7.69a3.17,3.17,0,0,1,.9-2.11,3.9,3.9,0,0,1,1.12-.85,3.49,3.49,0,0,1,1.32-.42c.43,0,.64-.1.64-.17S23.94,4,23.76,4a4.62,4.62,0,0,0-3.2,1.32,3.87,3.87,0,0,0-1.4,2.84,2.92,2.92,0,0,0,1.47,2.51,7.46,7.46,0,0,0,3.91,1.05,18.4,18.4,0,0,1-4.08,4.39,11.74,11.74,0,0,0-3.67-.82,5,5,0,0,0-2.06.32,1.33,1.33,0,0,0-.54.38.68.68,0,0,0-.19.44.6.6,0,0,0,.15.4,3.37,3.37,0,0,0,2.43.61,10,10,0,0,0,4.05-.81l.36.1.26.08a19.79,19.79,0,0,0,5.14.9,5.44,5.44,0,0,0,3.47-1.18c.3-.16.6-.35.92-.56l-1.91,1.79-2.21,2.16a24.78,24.78,0,0,0-2.21,2.55,24.3,24.3,0,0,1-4.55,4.94,7.28,7.28,0,0,1-1.77,1,4.26,4.26,0,0,1-1.57.31,2.23,2.23,0,0,1-1.26-.32,1,1,0,0,1-.5-.85v-.07a1,1,0,0,0,.5.11.79.79,0,0,0,.52-.17A.53.53,0,0,0,16,27c0-.35-.24-.52-.71-.52a1,1,0,0,0-.59.22.84.84,0,0,0-.27.29,1,1,0,0,0-.11.49,1.14,1.14,0,0,0,.17.58,2.22,2.22,0,0,0,2.16,1,8.79,8.79,0,0,0,4.83-1.8,26.16,26.16,0,0,0,5.81-5.85l2.49-3.2c.74-.92,1.41-1.7,2-2.36s1.12-1.2,1.58-1.63a14.36,14.36,0,0,1,1.22-1,6.12,6.12,0,0,1,.89-.59,3.65,3.65,0,0,1,.55-.25q.18,0,.18-.15c0-.07,0-.1-.16-.1-.49,0-1.67.75-3.54,2.24a18,18,0,0,1-2.17,1.61h0a10.69,10.69,0,0,1-1.32.7,6.62,6.62,0,0,1-2.62.49h-.63a14.56,14.56,0,0,1-4.36-.68l-.25-.08.39-.22a14.36,14.36,0,0,0,3.56-3.08l.37-.43c.27-.32.54-.67.81-1a15.9,15.9,0,0,0,4.16-1.32c.7-.33,1.39-.69,2.06-1.09a22.74,22.74,0,0,0,1.92-1.26A17.93,17.93,0,0,0,36.1,6.55a11.52,11.52,0,0,0,1.32-1.43,7,7,0,0,0,.87-1.4,2.83,2.83,0,0,0,.31-1.15A1.68,1.68,0,0,0,38.46,1.83ZM16.67,17.16a6.45,6.45,0,0,1-1.13-.07c-.81-.15-1.21-.36-1.21-.62s.8-.59,2.39-.59a13.41,13.41,0,0,1,3.21.54A6.74,6.74,0,0,1,16.67,17.16ZM36.05,5.84a16.88,16.88,0,0,1-4.26,3.37,15.65,15.65,0,0,1-5.21,2c.43-.59.88-1.23,1.32-1.92l1.41-2.2q3.54-5.85,7.27-5.84a1.21,1.21,0,0,1,.48.09,1,1,0,0,1,.75,1A5.6,5.6,0,0,1,36.05,5.84Z"/></g><g id="Chevron_G" data-name="Chevron G"><polygon points="2.32 15 12 30 9.65 30 0 15 9.65 0 12 0 2.32 15"/></g></svg>